#define nsis_wizard_width 164
#define nsis_wizard_height 314
static unsigned char nsis_wizard_bits[] = {
   0x00, 0x00, 0x00, 0x00, 0x00, 0x00, 0x00, 0x00, 0x00, 0x00, 0x00, 0x00,
   0x00, 0x00, 0x00, 0x00, 0x00, 0x00, 0x00, 0x00, 0x00, 0x00, 0x00, 0x00,
   0x00, 0x00, 0x00, 0x00, 0x00, 0x00, 0x00, 0x00, 0x00, 0x00, 0x00, 0x00,
   0x00, 0x00, 0x00, 0x00, 0x00, 0x00, 0x00, 0x00, 0x00, 0x00, 0x00, 0x00,
   0x00, 0x00, 0x00, 0x00, 0x00, 0x00, 0x00, 0x00, 0x00, 0x00, 0x00, 0x00,
   0x00, 0x00, 0x00, 0x00, 0x00, 0x00, 0x00, 0x00, 0x00, 0x00, 0x00, 0x00,
   0x00, 0x00, 0x00, 0x00, 0x00, 0x00, 0x00, 0x00, 0x00, 0x00, 0x00, 0x00,
   0x00, 0x00, 0x00, 0x00, 0x00, 0x00, 0x00, 0x00, 0x00, 0x00, 0x00, 0x00,
   0x00, 0x00, 0x00, 0x00, 0x00, 0x00, 0x00, 0x00, 0x00, 0x00, 0x00, 0x00,
   0x00, 0x00, 0x00, 0x00, 0x00, 0x00, 0x00, 0x00, 0x00, 0x00, 0x00, 0x00,
   0x00, 0x00, 0x00, 0x00, 0x00, 0x00, 0x00, 0x00, 0x00, 0x00, 0x00, 0x00,
   0x00, 0x00, 0x00, 0x00, 0x00, 0x00, 0x00, 0x00, 0x00, 0x00, 0x00, 0x00,
   0x00, 0x00, 0x00, 0x00, 0x00, 0x00, 0x00, 0x00, 0x00, 0x00, 0x00, 0x00,
   0x00, 0x00, 0x00, 0x00, 0x00, 0x00, 0x00, 0x00, 0x00, 0x00, 0x00, 0x00,
   0x00, 0x00, 0x00, 0x00, 0x00, 0x00, 0x00, 0x00, 0x00, 0x00, 0x00, 0x00,
   0x00, 0x00, 0x00, 0x00, 0x00, 0x00, 0x00, 0x00, 0x00, 0x00, 0x00, 0x00,
   0x00, 0x00, 0x00, 0x00, 0x00, 0x00, 0x00, 0x00, 0x00, 0x00, 0x00, 0x00,
   0x00, 0x00, 0x00, 0x00, 0x00, 0x00, 0x00, 0x00, 0x00, 0x00, 0x00, 0x00,
   0x00, 0x00, 0x00, 0x00, 0x00, 0x00, 0x00, 0x00, 0x00, 0x00, 0x00, 0x00,
   0x00, 0x00, 0x00, 0x00, 0x00, 0x00, 0x00, 0x00, 0x00, 0x00, 0x00, 0x00,
   0x00, 0x00, 0x00, 0x00, 0x00, 0x00, 0x00, 0x00, 0x00, 0x00, 0x00, 0x00,
   0x00, 0x00, 0x00, 0x00, 0x00, 0x00, 0x00, 0x00, 0x00, 0x00, 0x00, 0x00,
   0x00, 0x00, 0x00, 0x00, 0x00, 0x00, 0x00, 0x00, 0x00, 0x00, 0x00, 0x00,
   0x00, 0x00, 0x00, 0x00, 0x00, 0x00, 0x00, 0x00, 0x00, 0x00, 0x00, 0x00,
   0x00, 0x00, 0x00, 0x00, 0x00, 0x00, 0x00, 0x00, 0x00, 0x00, 0x00, 0x00,
   0x00, 0x00, 0x00, 0x00, 0x00, 0x00, 0x00, 0x00, 0x00, 0x00, 0x00, 0x00,
   0x00, 0x00, 0x00, 0x00, 0x00, 0x00, 0x00, 0x00, 0x00, 0x00, 0x00, 0x00,
   0x00, 0x00, 0x00, 0x00, 0x00, 0x00, 0x00, 0x00, 0x00, 0x00, 0x00, 0x00,
   0x00, 0x00, 0x00, 0x00, 0x00, 0x00, 0x00, 0x00, 0x00, 0x00, 0x00, 0x00,
   0x00, 0x00, 0x00, 0x00, 0x00, 0x00, 0x00, 0x00, 0x00, 0x00, 0x00, 0x00,
   0x00, 0x00, 0x00, 0x00, 0x00, 0x00, 0x00, 0x00, 0x00, 0x00, 0x00, 0x00,
   0x00, 0x00, 0x00, 0x00, 0x00, 0x00, 0x00, 0x00, 0x00, 0x00, 0x00, 0x00,
   0x00, 0x00, 0x00, 0x00, 0x00, 0x00, 0x00, 0x00, 0x00, 0x00, 0x00, 0x00,
   0x00, 0x00, 0x00, 0x00, 0x00, 0x00, 0x00, 0x00, 0x00, 0x00, 0x00, 0x00,
   0x00, 0x00, 0x00, 0x00, 0x00, 0x00, 0x00, 0x00, 0x00, 0x00, 0x00, 0x00,
   0x00, 0x00, 0x00, 0x00, 0x00, 0x00, 0x00, 0x00, 0x00, 0x00, 0x00, 0x00,
   0x00, 0x00, 0x00, 0x00, 0x00, 0x00, 0x00, 0x00, 0x00, 0x00, 0x00, 0x00,
   0x00, 0x00, 0x00, 0x00, 0x00, 0x00, 0x00, 0x00, 0x00, 0x00, 0x00, 0x00,
   0x00, 0x00, 0x00, 0x00, 0x00, 0x00, 0x00, 0x00, 0x00, 0x00, 0x00, 0x00,
   0x00, 0x00, 0x00, 0x00, 0x00, 0x00, 0x00, 0x00, 0x00, 0x00, 0x00, 0x00,
   0x00, 0x00, 0x00, 0x00, 0x00, 0x00, 0x00, 0x00, 0x00, 0x00, 0x00, 0x00,
   0x00, 0x00, 0x00, 0x00, 0x00, 0x00, 0x00, 0x00, 0x00, 0x00, 0x00, 0x00,
   0x00, 0x00, 0x00, 0x00, 0x00, 0x00, 0x00, 0x00, 0x00, 0x00, 0x00, 0x00,
   0x00, 0x00, 0x00, 0x00, 0x00, 0x00, 0x00, 0x00, 0x00, 0x00, 0x00, 0x00,
   0x00, 0x00, 0x00, 0x00, 0x00, 0x00, 0x00, 0x00, 0x00, 0x00, 0x00, 0x00,
   0x00, 0x00, 0x00, 0x00, 0x00, 0x00, 0x00, 0x00, 0x00, 0x00, 0x00, 0x00,
   0x00, 0x00, 0x00, 0x00, 0x00, 0x00, 0x00, 0x00, 0x00, 0x00, 0x00, 0x00,
   0x00, 0x00, 0x00, 0x00, 0x00, 0x00, 0x00, 0x00, 0x00, 0x00, 0x00, 0x00,
   0x00, 0x00, 0x00, 0x00, 0x00, 0x00, 0x00, 0x00, 0x00, 0x00, 0x00, 0x00,
   0x00, 0x00, 0x00, 0x00, 0x00, 0x00, 0x00, 0x00, 0x00, 0x00, 0x00, 0x00,
   0x00, 0x00, 0x00, 0x00, 0x00, 0x00, 0x00, 0x00, 0x00, 0x00, 0x00, 0x00,
   0x00, 0x00, 0x00, 0x00, 0x00, 0x00, 0x00, 0x00, 0x00, 0x00, 0x00, 0x00,
   0x00, 0x00, 0x00, 0x00, 0x00, 0x00, 0x00, 0x00, 0x00, 0x00, 0x00, 0x00,
   0x00, 0x00, 0x00, 0x00, 0x00, 0x00, 0x00, 0x00, 0x00, 0x00, 0x00, 0x00,
   0x00, 0x00, 0x00, 0x00, 0x00, 0x00, 0x00, 0x00, 0x00, 0x00, 0x00, 0x00,
   0x00, 0x00, 0x00, 0x00, 0x00, 0x00, 0x00, 0x00, 0x00, 0x00, 0x00, 0x00,
   0x00, 0x00, 0x00, 0x00, 0x00, 0x00, 0x00, 0x00, 0x00, 0x00, 0x00, 0x00,
   0x00, 0x00, 0x00, 0x00, 0x00, 0x00, 0x00, 0x00, 0x00, 0x00, 0x00, 0x00,
   0x00, 0x00, 0x00, 0x00, 0x00, 0x00, 0x00, 0x00, 0x00, 0x00, 0x00, 0x00,
   0x00, 0x00, 0x00, 0x00, 0x00, 0x00, 0x00, 0x00, 0x00, 0x00, 0x00, 0x00,
   0x00, 0x00, 0x00, 0x00, 0x22, 0x29, 0x02, 0x00, 0x00, 0x00, 0x00, 0x00,
   0x00, 0x00, 0x00, 0x00, 0x00, 0x00, 0x00, 0x00, 0x00, 0x00, 0x00, 0x00,
   0x90, 0x44, 0x90, 0xa4, 0x02, 0x00, 0x00, 0x00, 0x00, 0x00, 0x00, 0x00,
   0x00, 0x00, 0x00, 0x00, 0x00, 0x00, 0x00, 0x00, 0x20, 0x4d, 0xf3, 0x1e,
   0x47, 0x29, 0x00, 0x00, 0x00, 0x00, 0x00, 0x00, 0x00, 0x00, 0x00, 0x00,
   0x00, 0x00, 0x00, 0x00, 0x00, 0x48, 0x8a, 0xc6, 0x78, 0xce, 0xd2, 0x0a,
   0x00, 0x00, 0x00, 0x00, 0x00, 0x00, 0x00, 0x00, 0x00, 0x00, 0x00, 0x00,
   0x00, 0xa0, 0x32, 0x5d, 0xf3, 0x9a, 0xd7, 0x39, 0x14, 0x00, 0x00, 0x00,
   0x00, 0x00, 0x00, 0x00, 0x00, 0x00, 0x00, 0x00, 0x00, 0x00, 0x84, 0x74,
   0x9c, 0xe7, 0x3c, 0xce, 0x73, 0x5d, 0x05, 0x00, 0x00, 0x00, 0x00, 0x00,
   0x00, 0x00, 0x00, 0x00, 0x00, 0x00, 0x00, 0x69, 0x69, 0xad, 0xd5, 0x5c,
   0xd3, 0xbc, 0x96, 0x25, 0x00, 0x00, 0x00, 0x00, 0x00, 0x00, 0x00, 0x00,
   0x00, 0x00, 0x00, 0x20, 0xc5, 0x73, 0x1d, 0xe7, 0x59, 0xef, 0x79, 0xae,
   0xa5, 0x00, 0x00, 0x00, 0x00, 0x00, 0x00, 0x00, 0x00, 0x00, 0x00, 0x00,
   0x44, 0xcd, 0x75, 0x4e, 0x29, 0x1a, 0xe3, 0xba, 0xce, 0x53, 0x01, 0x00,
   0x00, 0x00, 0x00, 0x00, 0x00, 0x00, 0x00, 0x00, 0x00, 0x28, 0x9e, 0xe3,
   0x98, 0x62, 0x51, 0x8a, 0x59, 0xaf, 0x77, 0x15, 0x00, 0x00, 0x00, 0x00,
   0x00, 0x00, 0x00, 0x00, 0x00, 0x40, 0xb5, 0xce, 0x53, 0x04, 0x09, 0x92,
   0x52, 0x34, 0xd7, 0x79, 0x2a, 0x00, 0x00, 0x00, 0x00, 0x00, 0x00, 0x00,
   0x00, 0x00, 0x88, 0x64, 0x1c, 0x6b, 0x39, 0xa2, 0x92, 0x44, 0x21, 0xcd,
   0x73, 0x5d, 0x01, 0x00, 0x00, 0x00, 0x00, 0x00, 0x00, 0x00, 0x00, 0x50,
   0xb9, 0x4a, 0x21, 0x52, 0x5d, 0x6d, 0x5b, 0x8d, 0xd2, 0x7c, 0x1f, 0x05,
   0x00, 0x00, 0x00, 0x00, 0x00, 0x00, 0x00, 0x00, 0xa5, 0x73, 0x2c, 0xa5,
   0xea, 0xff, 0xff, 0xbf, 0x35, 0xd2, 0x79, 0xbe, 0x15, 0x00, 0x00, 0x00,
   0x00, 0x00, 0x00, 0x00, 0x00, 0xa9, 0xf8, 0x09, 0xa9, 0xbf, 0xfb, 0xff,
   0x7f, 0xeb, 0x0a, 0x35, 0xcf, 0x23, 0x00, 0x00, 0x00, 0x00, 0x00, 0x00,
   0x00, 0x40, 0x8a, 0x43, 0x49, 0xfa, 0x7f, 0xdf, 0xb6, 0xed, 0xdf, 0x6b,
   0xa8, 0xae, 0xa7, 0x00, 0x00, 0x00, 0x00, 0x00, 0x00, 0x00, 0xa8, 0x26,
   0x29, 0xd2, 0xef, 0xfd, 0xff, 0xff, 0xff, 0xff, 0x5e, 0x2b, 0xd7, 0x7b,
   0x01, 0x00, 0x00, 0x00, 0x00, 0x00, 0x00, 0x90, 0x9c, 0x96, 0xb4, 0xbf,
   0xff, 0xff, 0xff, 0xff, 0xff, 0xfb, 0x4a, 0xed, 0x73, 0x05, 0x00, 0x00,
   0x00, 0x00, 0x00, 0x00, 0x55, 0x2a, 0x21, 0xfd, 0xff, 0xff, 0xff, 0xff,
   0xff, 0xff, 0xae, 0x57, 0xe5, 0x7c, 0x15, 0x00, 0x00, 0x00, 0x00, 0x00,
   0x00, 0xa8, 0x54, 0xa6, 0xff, 0xfe, 0xff, 0xff, 0xff, 0xff, 0xff, 0xdf,
   0x5e, 0xe9, 0x79, 0x2e, 0x00, 0x00, 0x00, 0x00, 0x00, 0xc0, 0x6a, 0x89,
   0xec, 0xff, 0xff, 0xff, 0xff, 0xff, 0xff, 0xff, 0xff, 0x7f, 0x55, 0xbd,
   0x4d, 0x00, 0x00, 0x00, 0x00, 0x00, 0x90, 0xe2, 0x32, 0xf9, 0xf7, 0xff,
   0xff, 0xff, 0xff, 0xff, 0xff, 0xff, 0xef, 0x57, 0x7d, 0x5f, 0x01, 0x00,
   0x00, 0x00, 0x00, 0xa0, 0x2a, 0x65, 0xff, 0xff, 0xff, 0xff, 0xff, 0xff,
   0xff, 0xff, 0xff, 0xff, 0xaa, 0x9e, 0x4f, 0x01, 0x00, 0x00, 0x00, 0x00,
   0x2a, 0xe5, 0x48, 0xff, 0xff, 0xff, 0xff, 0xff, 0xff, 0xff, 0xff, 0xff,
   0xff, 0xbf, 0xb0, 0xdf, 0x07, 0x00, 0x00, 0x00, 0x00, 0xa4, 0xa4, 0xf2,
   0xbf, 0xff, 0xfe, 0xff, 0xff, 0xff, 0xff, 0xff, 0xff, 0xff, 0xfe, 0xce,
   0xf7, 0x09, 0x00, 0x00, 0x00, 0x80, 0x2a, 0x15, 0xfe, 0xff, 0xdf, 0xfb,
   0xff, 0xff, 0xff, 0xff, 0xff, 0xff, 0xff, 0xff, 0x55, 0xe7, 0x2b, 0x00,
   0x00, 0x00, 0x80, 0x54, 0xd2, 0xfc, 0xff, 0xfd, 0xff, 0xff, 0xff, 0xff,
   0xff, 0xff, 0xff, 0xff, 0x57, 0xd7, 0xf5, 0x5a, 0x00, 0x00, 0x00, 0x40,
   0x89, 0x8a, 0xff, 0xff, 0x57, 0xf7, 0xff, 0xff, 0xff, 0xff, 0xff, 0xff,
   0xff, 0x7f, 0x2f, 0xfd, 0xbd, 0x00, 0x00, 0x00, 0x50, 0x35, 0xb2, 0xff,
   0xaf, 0xfd, 0xfd, 0xff, 0xff, 0xff, 0xff, 0xff, 0xff, 0xff, 0xff, 0xbf,
   0x74, 0xbd, 0x00, 0x00, 0x00, 0xa0, 0xc4, 0xe4, 0xff, 0xbd, 0xb7, 0xff,
   0xff, 0xff, 0xff, 0xff, 0xff, 0xff, 0xff, 0xff, 0xff, 0x7b, 0x7f, 0x03,
   0x00, 0x00, 0xac, 0x3a, 0xe9, 0x7f, 0x77, 0xfd, 0xff, 0xff, 0xff, 0xff,
   0xff, 0xff, 0xff, 0xff, 0xff, 0xab, 0xaa, 0x9f, 0x0a, 0x00, 0x00, 0x48,
   0x44, 0xfd, 0xff, 0xd6, 0xeb, 0xff, 0xff, 0xff, 0xff, 0xff, 0xff, 0xff,
   0xff, 0xff, 0xff, 0x2f, 0xef, 0x07, 0x00, 0x00, 0x55, 0x55, 0xfe, 0xaf,
   0x6d, 0xf7, 0xff, 0xff, 0xff, 0xff, 0xff, 0xff, 0xff, 0xff, 0xff, 0xff,
   0xe9, 0xdf, 0x0b, 0x00, 0x00, 0x95, 0x92, 0xff, 0x7f, 0xdb, 0xee, 0xff,
   0xff, 0xff, 0xff, 0xff, 0xff, 0xff, 0xff, 0xff, 0xff, 0x2f, 0xeb, 0x07,
   0x00, 0x40, 0xa5, 0x64, 0xff, 0xa5, 0xb6, 0xeb, 0xff, 0xff, 0xff, 0xff,
   0xff, 0xff, 0xff, 0xff, 0xff, 0xff, 0xff, 0xfa, 0x0b, 0x00, 0x40, 0x3a,
   0xc9, 0xff, 0xaf, 0x75, 0xd5, 0xff, 0xff, 0xff, 0xff, 0xff, 0xff, 0xff,
   0xff, 0xff, 0xff, 0xaf, 0xf5, 0x0b, 0x00, 0xa0, 0x49, 0xf7, 0x7f, 0x6a,
   0xad, 0xaa, 0xff, 0xff, 0xff, 0xff, 0xff, 0xff, 0xff, 0xff, 0xff, 0xff,
   0xff, 0xfa, 0x0e, 0x00, 0xa0, 0xea, 0xf4, 0xff, 0xaa, 0xaa, 0x5e, 0xff,
   0xff, 0xff, 0xff, 0xff, 0xff, 0xff, 0xff, 0xff, 0xff, 0xff, 0x77, 0x0d,
   0x00, 0x54, 0x49, 0xfd, 0xaf, 0x6a, 0xab, 0xaa, 0xff, 0xff, 0xff, 0xff,
   0xff, 0xff, 0xff, 0xff, 0xff, 0xff, 0xff, 0x6d, 0x0f, 0x00, 0x34, 0x57,
   0xfa, 0xaf, 0xd6, 0xa6, 0xaa, 0xff, 0xff, 0xff, 0xff, 0xff, 0xff, 0xff,
   0xff, 0xff, 0xff, 0xff, 0xaf, 0x0f, 0x00, 0xaa, 0x5c, 0xff, 0xab, 0xaa,
   0x59, 0x55, 0xff, 0xff, 0xff, 0xff, 0xff, 0xff, 0xff, 0xff, 0xff, 0xff,
   0xff, 0xdf, 0x0e, 0x00, 0x54, 0x93, 0xfe, 0x55, 0xf5, 0x53, 0xf5, 0xff,
   0xff, 0xff, 0xff, 0xff, 0xff, 0xff, 0xff, 0xff, 0xff, 0xff, 0xbb, 0x0f,
   0x80, 0x96, 0x6c, 0xff, 0xaa, 0xd7, 0x55, 0x55, 0xfb, 0xff, 0xff, 0xff,
   0xff, 0xff, 0xff, 0xff, 0xff, 0xff, 0xff, 0xff, 0x06, 0x00, 0xb5, 0xcb,
   0xbf, 0x29, 0xfe, 0x95, 0xea, 0xfc, 0xff, 0xff, 0xff, 0xff, 0xff, 0xff,
   0xff, 0xff, 0xff, 0xff, 0xdf, 0x0d, 0xc0, 0xea, 0xf4, 0x7f, 0xaa, 0xff,
   0x55, 0xaa, 0xfb, 0xff, 0xff, 0xff, 0xff, 0xff, 0xff, 0xff, 0xff, 0xff,
   0xff, 0xff, 0x06, 0x80, 0xaa, 0xeb, 0xdf, 0x12, 0xfe, 0xbb, 0x55, 0x45,
   0xff, 0xff, 0xff, 0xff, 0xff, 0xff, 0xff, 0xff, 0xff, 0xff, 0xff, 0x0d,
   0x60, 0x55, 0xfd, 0x3f, 0x55, 0xff, 0x2f, 0x55, 0xbd, 0xff, 0xff, 0xff,
   0xff, 0xff, 0xff, 0xff, 0xff, 0xff, 0xff, 0xff, 0x0b, 0xd0, 0xaa, 0xfa,
   0x57, 0xa5, 0xff, 0x5f, 0xa9, 0xfa, 0xfa, 0xff, 0xff, 0xff, 0xff, 0xff,
   0xff, 0xff, 0xff, 0xff, 0xff, 0x0f, 0x68, 0x55, 0xfd, 0xaf, 0xd4, 0xff,
   0x57, 0x55, 0xdd, 0xdf, 0xff, 0xff, 0xff, 0xff, 0xff, 0xff, 0xff, 0xff,
   0xff, 0xff, 0x0b, 0x50, 0xd5, 0xff, 0xab, 0xa2, 0xff, 0x2b, 0xa5, 0xaa,
   0xaa, 0xff, 0xff, 0xff, 0xff, 0xff, 0xff, 0xff, 0xff, 0xff, 0xff, 0x0f,
   0xdc, 0x55, 0xff, 0x4b, 0xaa, 0xff, 0x57, 0x55, 0x55, 0xfd, 0xff, 0xff,
   0xff, 0xff, 0xff, 0xff, 0xff, 0xff, 0xff, 0xff, 0x0f, 0xf2, 0xf5, 0xff,
   0x55, 0x49, 0xff, 0xaf, 0x94, 0xaa, 0xeb, 0xff, 0xff, 0xff, 0xff, 0xff,
   0xff, 0xff, 0xff, 0xff, 0xff, 0x0f, 0xbe, 0xaf, 0x7f, 0x4b, 0x95, 0xfe,
   0xa7, 0xaa, 0xaa, 0x5e, 0xdb, 0xfe, 0xff, 0xff, 0xff, 0xff, 0xff, 0xff,
   0xff, 0xff, 0x0f, 0xd9, 0xf5, 0xff, 0x54, 0x52, 0xff, 0x5f, 0x72, 0xaa,
   0xea, 0x7b, 0xbb, 0xfd, 0xff, 0xff, 0xff, 0xff, 0xff, 0xff, 0xff, 0x0f,
   0x5e, 0xf7, 0x7f, 0x5d, 0xa5, 0xfe, 0x92, 0xaa, 0xaa, 0x5e, 0xef, 0xed,
   0xf6, 0xff, 0xff, 0xff, 0xff, 0xff, 0xff, 0xff, 0x0f, 0xff, 0xff, 0xdf,
   0x95, 0xac, 0xee, 0x55, 0x49, 0xf5, 0xfb, 0xbd, 0xdf, 0xaf, 0xfa, 0xff,
   0xff, 0xff, 0xff, 0xab, 0xff, 0x0f, 0xfd, 0xee, 0xbf, 0xaa, 0xa9, 0x69,
   0x49, 0x55, 0x55, 0xed, 0xef, 0xfb, 0xfe, 0xee, 0xff, 0xff, 0xff, 0xff,
   0xb7, 0xff, 0x0f, 0xfb, 0xfe, 0xaf, 0x3a, 0x2b, 0x65, 0x25, 0x39, 0xf5,
   0x7f, 0x7f, 0xff, 0xef, 0xdf, 0xff, 0xff, 0xff, 0xff, 0x55, 0xff, 0x0f,
   0xef, 0xff, 0xaf, 0xea, 0x4a, 0x89, 0x54, 0x65, 0x6f, 0xdf, 0xfb, 0xb7,
   0xfd, 0xff, 0xfe, 0xff, 0xff, 0xff, 0xb7, 0xff, 0x0f, 0xff, 0xfe, 0x5f,
   0x55, 0xb9, 0x32, 0x49, 0x4a, 0xfd, 0xfd, 0xf7, 0xfe, 0xff, 0xff, 0xff,
   0xff, 0xff, 0xff, 0xad, 0xfe, 0x0f, 0xff, 0xff, 0xbb, 0xaa, 0x4a, 0x45,
   0x92, 0xbc, 0xff, 0x7f, 0xbf, 0xef, 0xff, 0xff, 0xff, 0xff, 0xff, 0xff,
   0x6a, 0xff, 0x0f, 0xff, 0xff, 0xb7, 0xaa, 0xaa, 0x94, 0xa4, 0xea, 0xee,
   0xff, 0xff, 0xbd, 0xdb, 0xff, 0xff, 0xff, 0xff, 0xff, 0x5f, 0xff, 0x0f,
   0x7f, 0xff, 0xff, 0x55, 0xa5, 0x52, 0x49, 0xfa, 0xff, 0xfb, 0xb5, 0xf7,
   0xfe, 0xff, 0xff, 0xff, 0xff, 0xff, 0xd5, 0xff, 0x0f, 0xff, 0xff, 0xeb,
   0xab, 0x2a, 0x95, 0xa4, 0xee, 0xbf, 0xbf, 0xef, 0xee, 0xff, 0xff, 0xff,
   0xff, 0xff, 0xff, 0xbf, 0xff, 0x0f, 0xff, 0xff, 0x5f, 0xaf, 0xaa, 0x92,
   0xca, 0xfa, 0xff, 0xf7, 0xba, 0xfb, 0xff, 0xff, 0xff, 0xff, 0xff, 0xff,
   0xff, 0xff, 0x0f, 0xef, 0xff, 0xf7, 0xaf, 0x4a, 0x2a, 0xa9, 0xff, 0xff,
   0xaf, 0x6b, 0xff, 0xff, 0xff, 0xff, 0xff, 0xff, 0xff, 0xff, 0xff, 0x0f,
   0xff, 0xff, 0xff, 0xff, 0x5a, 0xa9, 0xd2, 0xff, 0xff, 0x7e, 0xdd, 0xff,
   0xff, 0xff, 0xff, 0xff, 0xff, 0xff, 0xff, 0xff, 0x0f, 0xff, 0xff, 0xfd,
   0xff, 0x52, 0xa7, 0x54, 0xff, 0xfd, 0x55, 0xb7, 0xfa, 0xfb, 0xff, 0xff,
   0xff, 0xff, 0xff, 0xff, 0xff, 0x0f, 0xff, 0xff, 0xff, 0xff, 0xae, 0x9c,
   0xfa, 0xff, 0xdf, 0xdb, 0xba, 0xb6, 0x57, 0xbd, 0xff, 0xff, 0xff, 0xff,
   0xff, 0xff, 0x0f, 0xff, 0xff, 0xfd, 0xff, 0x55, 0xab, 0xf6, 0xff, 0x7f,
   0x55, 0xd7, 0x75, 0xfd, 0xf5, 0xfe, 0xff, 0xff, 0xff, 0xff, 0xff, 0x0f,
   0xff, 0xff, 0xff, 0xff, 0x97, 0x94, 0xfe, 0xff, 0xdf, 0xed, 0xaa, 0xd6,
   0xd7, 0xd7, 0xab, 0xff, 0xff, 0xff, 0xff, 0xff, 0x0f, 0xff, 0xff, 0xff,
   0xff, 0x7a, 0x65, 0xfd, 0xff, 0x3f, 0x55, 0xd5, 0xbe, 0xbd, 0x7e, 0x77,
   0xff, 0xff, 0xff, 0xff, 0xff, 0x0f, 0xff, 0xff, 0xff, 0xff, 0xab, 0xab,
   0xff, 0xff, 0xd7, 0x2a, 0xb5, 0xfb, 0xf7, 0xea, 0xdd, 0xf5, 0xff, 0xff,
   0xff, 0xff, 0x0f, 0xff, 0xff, 0xff, 0xff, 0xab, 0xae, 0xff, 0xff, 0x57,
   0xad, 0x6a, 0x77, 0xdf, 0xaf, 0xb5, 0xed, 0xff, 0xff, 0xff, 0xff, 0x0f,
   0xff, 0xff, 0xff, 0xff, 0xab, 0xfa, 0xff, 0xff, 0xaa, 0xea, 0xfa, 0xdd,
   0x7f, 0x7b, 0xf7, 0x7a, 0xff, 0xff, 0xff, 0xff, 0x0f, 0xff, 0xff, 0xff,
   0xff, 0x56, 0xd5, 0xff, 0xff, 0xd5, 0x92, 0xae, 0xff, 0xf5, 0xff, 0xff,
   0xef, 0xff, 0xff, 0xff, 0xff, 0x0f, 0xff, 0xff, 0xff, 0xff, 0xba, 0xfa,
   0xff, 0x7f, 0x95, 0x6e, 0xfb, 0x7f, 0xdf, 0x6b, 0x6b, 0x5b, 0xfb, 0xff,
   0xff, 0xff, 0x0f, 0xff, 0xff, 0xff, 0xff, 0xae, 0xf6, 0xff, 0x7f, 0x55,
   0x49, 0xff, 0xf7, 0x7b, 0x7f, 0x5f, 0xef, 0xfa, 0xff, 0xff, 0xff, 0x0f,
   0xff, 0xff, 0xff, 0x7f, 0xbb, 0xff, 0xff, 0xaf, 0xaa, 0xfa, 0xbf, 0x7d,
   0xef, 0xed, 0x7b, 0xfb, 0xeb, 0xff, 0xff, 0xff, 0x0f, 0xff, 0xff, 0xff,
   0x7f, 0xfd, 0xfd, 0xff, 0xbf, 0x2a, 0x51, 0xf5, 0xff, 0xba, 0xaf, 0x77,
   0xbf, 0xbf, 0xff, 0xff, 0xff, 0x0f, 0xff, 0xff, 0xff, 0xff, 0xb5, 0xfe,
   0xff, 0x57, 0x49, 0xfe, 0xff, 0xdb, 0xf7, 0xfa, 0xff, 0xf5, 0xf5, 0xff,
   0xff, 0xff, 0x05, 0xff, 0xff, 0xff, 0xbf, 0xd6, 0xff, 0xff, 0xaf, 0x52,
   0xb5, 0xd2, 0xbf, 0x7e, 0x7f, 0xff, 0x6f, 0xab, 0xff, 0xff, 0xff, 0x0b,
   0xff, 0xff, 0xff, 0xff, 0x75, 0xff, 0xff, 0xab, 0x4a, 0xdb, 0xfe, 0xff,
   0xea, 0xd5, 0xdb, 0xfe, 0xee, 0xfd, 0xff, 0xff, 0x05, 0xff, 0xff, 0xff,
   0xff, 0xf7, 0xff, 0xff, 0x57, 0x95, 0xbe, 0x72, 0xfb, 0xaf, 0xff, 0xff,
   0x57, 0xd5, 0xfb, 0xff, 0xff, 0x0a, 0xff, 0xff, 0xff, 0xff, 0xdf, 0xff,
   0xff, 0x55, 0x69, 0xab, 0xda, 0x5f, 0x7d, 0xdb, 0xf6, 0xff, 0x5d, 0xf5,
   0xff, 0xff, 0x05, 0xff, 0xff, 0xff, 0xff, 0xfd, 0xff, 0xff, 0x2b, 0xc5,
   0xab, 0xfa, 0xff, 0xba, 0xfe, 0xdf, 0xae, 0xea, 0xfe, 0xff, 0xff, 0x0a,
   0xff, 0xff, 0xff, 0xff, 0xf7, 0xff, 0x7f, 0xad, 0xb4, 0xaa, 0xfa, 0x7e,
   0xf5, 0xeb, 0xfd, 0xff, 0xfb, 0xeb, 0xff, 0xff, 0x07, 0xff, 0xff, 0xff,
   0xff, 0xef, 0xff, 0xff, 0xaa, 0xea, 0xaa, 0xea, 0xfb, 0x75, 0xbf, 0xff,
   0x7f, 0x5f, 0xed, 0xff, 0xff, 0x0b, 0xff, 0xff, 0xff, 0xff, 0xfb, 0xff,
   0x7f, 0x2b, 0xb5, 0xaa, 0xfa, 0xbf, 0xaa, 0xed, 0xff, 0xff, 0x7b, 0xaf,
   0xff, 0xff, 0x07, 0xff, 0xff, 0xff, 0xff, 0xff, 0xff, 0x7f, 0x55, 0xb5,
   0x52, 0xd5, 0xff, 0x55, 0xdf, 0xfa, 0x7f, 0xef, 0xfd, 0xff, 0xff, 0x0d,
   0xff, 0xff, 0xff, 0xff, 0xff, 0xff, 0xdf, 0x2a, 0xad, 0xaa, 0xfa, 0xbb,
   0xaa, 0xfd, 0xff, 0xff, 0x5b, 0x57, 0xff, 0xff, 0x0f, 0xff, 0xff, 0xff,
   0xff, 0xff, 0xff, 0xbf, 0xcb, 0x5a, 0xa5, 0xea, 0xff, 0x52, 0xbb, 0xfd,
   0xff, 0xef, 0xab, 0xfc, 0xff, 0x0f, 0xff, 0xff, 0xff, 0xff, 0xff, 0xff,
   0x5f, 0x35, 0x55, 0x95, 0x7a, 0xbf, 0xed, 0xef, 0xf6, 0xff, 0xbf, 0xfe,
   0xff, 0xff, 0x0f, 0xff, 0xff, 0xff, 0xff, 0xff, 0xff, 0xff, 0xca, 0x55,
   0x49, 0xf5, 0xf7, 0x4a, 0xfd, 0xff, 0xff, 0xdb, 0x57, 0xf9, 0xff, 0x0f,
   0xff, 0xff, 0xff, 0xff, 0xfe, 0xff, 0x57, 0x35, 0xad, 0x4a, 0xfd, 0xbf,
   0xda, 0xdf, 0xfd, 0xff, 0xbf, 0x5f, 0xf7, 0xff, 0x0f, 0xff, 0xff, 0xff,
   0xff, 0xff, 0xff, 0x5f, 0x55, 0x55, 0xa9, 0xb5, 0xff, 0xb7, 0xba, 0xeb,
   0xff, 0xff, 0xfa, 0xff, 0xff, 0x0f, 0xff, 0xff, 0xff, 0xff, 0xff, 0xff,
   0x77, 0xd5, 0x95, 0xca, 0xff, 0xff, 0xde, 0xff, 0xed, 0xff, 0x5f, 0xaf,
   0xf6, 0xff, 0x0f, 0xff, 0xff, 0xff, 0xff, 0xff, 0xff, 0xaf, 0xaa, 0x52,
   0x55, 0xff, 0xed, 0xb7, 0xbb, 0xff, 0xff, 0xff, 0xed, 0xed, 0xff, 0x0f,
   0xff, 0xff, 0xff, 0xff, 0xff, 0xff, 0xf7, 0xaa, 0x4a, 0xea, 0xff, 0xff,
   0xfd, 0xef, 0xf6, 0xff, 0x7f, 0xbf, 0xea, 0xff, 0x0f, 0xff, 0xff, 0xff,
   0xff, 0xff, 0xff, 0xef, 0xab, 0xba, 0xaa, 0xf6, 0xdf, 0xd7, 0xfe, 0xbf,
   0xff, 0xff, 0x55, 0xd5, 0xff, 0x0f, 0xff, 0xff, 0xff, 0xff, 0xff, 0xff,
   0x6d, 0x55, 0x55, 0xaa, 0xff, 0xff, 0xbb, 0xbf, 0xf5, 0xfd, 0x7f, 0xf7,
   0xdf, 0xff, 0x0f, 0xff, 0xff, 0xff, 0xff, 0xff, 0xff, 0xdf, 0x57, 0xa5,
   0xaa, 0x7e, 0xff, 0xef, 0xf6, 0xef, 0xfd, 0xff, 0xaf, 0xba, 0xff, 0x0f,
   0xff, 0xff, 0xff, 0xff, 0xff, 0xff, 0xbd, 0x55, 0xad, 0x54, 0xff, 0xbf,
   0xab, 0x7f, 0xbf, 0xfe, 0xff, 0xab, 0xa5, 0xff, 0x0f, 0xff, 0xff, 0xff,
   0xff, 0xff, 0xff, 0x7b, 0x5f, 0xa9, 0xad, 0xfa, 0xfb, 0x57, 0xed, 0xf6,
   0xfb, 0x7f, 0x7f, 0xfd, 0xff, 0x0f, 0xff, 0xff, 0xff, 0xff, 0xff, 0xff,
   0xf7, 0xad, 0x96, 0xaa, 0xfe, 0xff, 0xaf, 0xff, 0xdf, 0xf6, 0xff, 0xd5,
   0xaf, 0xff, 0x0f, 0xff, 0xff, 0xff, 0xff, 0xff, 0xff, 0xfd, 0x57, 0x69,
   0xb5, 0xfd, 0xbf, 0x5b, 0xdd, 0xfd, 0xeb, 0xff, 0x77, 0x7b, 0xff, 0x0f,
   0xff, 0xff, 0xff, 0xff, 0xff, 0xff, 0xfe, 0x7b, 0x4f, 0xad, 0xfe, 0xff,
   0x57, 0x77, 0x77, 0xdf, 0xff, 0xdf, 0x57, 0xff, 0x0f, 0xff, 0xff, 0xff,
   0xff, 0xff, 0xff, 0xff, 0x9d, 0xba, 0xab, 0xfd, 0xff, 0xaf, 0xfe, 0xef,
   0xab, 0xff, 0xbf, 0x6a, 0xff, 0x0f, 0xff, 0xff, 0xff, 0xff, 0xff, 0xff,
   0xff, 0x7f, 0xaf, 0x5a, 0x7f, 0xf7, 0xab, 0x7e, 0x7f, 0xaf, 0xff, 0xfb,
   0xae, 0xfe, 0x0f, 0xff, 0xff, 0xff, 0xff, 0xff, 0xff, 0xff, 0xbf, 0xaa,
   0xb6, 0xfa, 0xff, 0xaf, 0xf5, 0xed, 0xfb, 0xfe, 0xdf, 0xab, 0xff, 0x0f,
   0xff, 0xff, 0xff, 0xff, 0xff, 0xff, 0xff, 0xff, 0x55, 0x55, 0xff, 0xff,
   0x5b, 0xdf, 0xbf, 0x6e, 0xfd, 0xb7, 0xfe, 0xfe, 0x0f, 0xff, 0xff, 0xff,
   0xff, 0xff, 0xff, 0xff, 0x7b, 0x55, 0x6d, 0xfd, 0xff, 0x57, 0x7d, 0xfb,
   0xab, 0xef, 0xdf, 0xd5, 0xfd, 0x0f, 0xff, 0xff, 0xff, 0xff, 0xff, 0xff,
   0xff, 0xdf, 0x5d, 0x59, 0xff, 0xff, 0x57, 0xff, 0xef, 0xf7, 0xf7, 0xf7,
   0xb7, 0xfe, 0x0f, 0xff, 0xff, 0xff, 0xff, 0xff, 0xff, 0xff, 0xfd, 0x5f,
   0x6b, 0xfd, 0xff, 0x4f, 0xf5, 0xde, 0xae, 0xea, 0x7f, 0xaf, 0xfd, 0x0f,
   0xff, 0xff, 0xff, 0xff, 0xff, 0xff, 0xff, 0xbf, 0xfb, 0xde, 0xfe, 0xff,
   0xab, 0xbe, 0xff, 0xab, 0xee, 0xd7, 0x55, 0xff, 0x0f, 0xff, 0xff, 0xff,
   0xff, 0xff, 0xff, 0xff, 0xff, 0x5f, 0xb5, 0xff, 0xff, 0x97, 0xfd, 0x7d,
   0xd7, 0xbd, 0xdf, 0xfb, 0xfa, 0x0f, 0xff, 0xff, 0xff, 0xff, 0xff, 0xff,
   0xff, 0xff, 0x7d, 0x6f, 0xfd, 0xff, 0x57, 0xf7, 0xd7, 0x55, 0x55, 0xb7,
   0xef, 0xfe, 0x0f, 0xff, 0xff, 0xff, 0xff, 0xff, 0xff, 0xff, 0x7f, 0xef,
   0x5a, 0xff, 0xff, 0x2f, 0xfd, 0xff, 0xaf, 0xda, 0xff, 0xfe, 0xfb, 0x0f,
   0xff, 0xff, 0xff, 0xff, 0xff, 0xff, 0xff, 0xff, 0xbb, 0xeb, 0xfe, 0xff,
   0xab, 0xde, 0xbe, 0x55, 0x75, 0xaf, 0xa7, 0xfe, 0x0f, 0xff, 0xff, 0xff,
   0xff, 0xff, 0xff, 0xff, 0xff, 0xff, 0xba, 0xfd, 0xff, 0x4f, 0xfb, 0xfb,
   0xa7, 0xea, 0xbd, 0xfd, 0xfa, 0x0f, 0xff, 0xff, 0xff, 0xff, 0xff, 0xff,
   0xff, 0xff, 0xef, 0x6e, 0xff, 0xff, 0x2b, 0xff, 0x5f, 0xad, 0xaa, 0x6b,
   0xdf, 0xff, 0x0f, 0xff, 0xff, 0xff, 0xff, 0xff, 0xff, 0xff, 0xff, 0xdf,
   0xdb, 0xfe, 0xff, 0x57, 0xba, 0xff, 0x52, 0x75, 0xdd, 0xbb, 0xfa, 0x0f,
   0xff, 0xff, 0xff, 0xff, 0xff, 0xff, 0xff, 0xff, 0xbf, 0x6f, 0xff, 0xff,
   0xd7, 0xfe, 0xfd, 0xad, 0xea, 0x7b, 0xff, 0xee, 0x0f, 0xff, 0xff, 0xff,
   0xff, 0xff, 0xff, 0xff, 0xff, 0xbf, 0xdd, 0xfe, 0xff, 0x97, 0xf7, 0xbf,
   0x4a, 0x75, 0x55, 0xf7, 0xfd, 0x0f, 0xff, 0xff, 0xff, 0xff, 0xff, 0xff,
   0xff, 0xff, 0xff, 0x7a, 0xff, 0xff, 0x6f, 0xbf, 0xfb, 0xba, 0xea, 0xfb,
   0xae, 0xfb, 0x0f, 0xff, 0xff, 0xff, 0xff, 0xff, 0xff, 0xff, 0xff, 0xff,
   0xea, 0xfe, 0xff, 0xd7, 0xfe, 0x5f, 0x95, 0xaa, 0xaf, 0xf7, 0xfe, 0x0f,
   0xff, 0xff, 0xff, 0xff, 0xff, 0xff, 0xff, 0xff, 0xff, 0xdf, 0xff, 0xff,
   0xf7, 0xff, 0xb6, 0x32, 0x55, 0xfd, 0xbe, 0xfb, 0x0f, 0xff, 0xff, 0xff,
   0xff, 0xff, 0xff, 0xff, 0xff, 0xff, 0xbb, 0xfe, 0xff, 0xaf, 0xdb, 0xaf,
   0xce, 0x54, 0xa9, 0x75, 0xfb, 0x0f, 0xff, 0xff, 0xff, 0xff, 0xff, 0xff,
   0xff, 0xff, 0xff, 0xeb, 0xff, 0xff, 0xfb, 0xff, 0xaa, 0x32, 0xab, 0x77,
   0xbf, 0xfe, 0x0f, 0xff, 0xff, 0xff, 0xff, 0xff, 0xff, 0xff, 0xff, 0xff,
   0xbf, 0xfe, 0xff, 0xab, 0xdf, 0x2b, 0xe5, 0x52, 0xef, 0xd9, 0xf5, 0x0f,
   0xff, 0xff, 0xff, 0xff, 0xff, 0xff, 0xff, 0xff, 0xff, 0xef, 0xff, 0xff,
   0xef, 0x6a, 0x55, 0x95, 0xaa, 0xea, 0xf7, 0xff, 0x0f, 0xff, 0xff, 0xff,
   0xff, 0xff, 0xff, 0xff, 0xff, 0xff, 0xdf, 0xfe, 0xff, 0x5f, 0x5b, 0x55,
   0x72, 0x4a, 0x5d, 0x6f, 0xf5, 0x0f, 0xff, 0xff, 0xff, 0xff, 0xff, 0xff,
   0xff, 0xff, 0xff, 0x7f, 0xff, 0xff, 0xab, 0xaa, 0xaa, 0xca, 0xaa, 0xb2,
   0xed, 0xff, 0x0f, 0xff, 0xff, 0xff, 0xff, 0xff, 0xff, 0xff, 0xff, 0xff,
   0xef, 0xff, 0xff, 0x6f, 0x55, 0x95, 0x94, 0x9c, 0xf6, 0x5f, 0xfb, 0x0f,
   0xff, 0xff, 0xff, 0xff, 0xff, 0xff, 0xff, 0xff, 0xff, 0xbf, 0xfe, 0xff,
   0xaf, 0xaa, 0x54, 0x75, 0xb5, 0x2e, 0xfb, 0xee, 0x0f, 0xff, 0xff, 0xff,
   0xff, 0xff, 0xff, 0xff, 0xff, 0xff, 0xf7, 0xff, 0xff, 0xdf, 0x56, 0x49,
   0x92, 0x92, 0xfa, 0xdf, 0xff, 0x0f, 0xff, 0xff, 0xff, 0xff, 0xff, 0xff,
   0xff, 0xff, 0xff, 0xbf, 0xff, 0xff, 0xb7, 0xaa, 0x4a, 0x55, 0xae, 0xda,
   0x55, 0xed, 0x0f, 0xff, 0xff, 0xff, 0xff, 0xff, 0xff, 0xff, 0xff, 0xff,
   0xff, 0xfe, 0xff, 0xaf, 0xaa, 0x24, 0x49, 0x35, 0x7b, 0xfb, 0xff, 0x0f,
   0xff, 0xff, 0xff, 0xff, 0xff, 0xff, 0xff, 0xff, 0xff, 0xdf, 0xff, 0xff,
   0x77, 0xab, 0x4a, 0x52, 0xea, 0xf6, 0x5f, 0xfd, 0x0f, 0xff, 0xff, 0xff,
   0xff, 0xff, 0xff, 0xff, 0xff, 0xff, 0xbf, 0xff, 0xff, 0xaf, 0xaa, 0x92,
   0x4a, 0x29, 0x5d, 0xed, 0xeb, 0x0f, 0xff, 0xff, 0xff, 0xff, 0xff, 0xff,
   0xff, 0xff, 0xff, 0xff, 0xfe, 0xff, 0xb7, 0x2d, 0x29, 0x94, 0xaa, 0xb6,
   0xbf, 0xef, 0x0f, 0xff, 0xff, 0xff, 0xff, 0xff, 0xff, 0xff, 0xff, 0xff,
   0xff, 0xff, 0xff, 0x6f, 0x53, 0xa5, 0x52, 0x92, 0x7d, 0x75, 0x7d, 0x0f,
   0xff, 0xff, 0xff, 0xff, 0xff, 0xff, 0xff, 0xff, 0xff, 0xbf, 0xff, 0xff,
   0xaf, 0x2c, 0x29, 0xa5, 0xaa, 0xf6, 0xee, 0xf7, 0x0f, 0xff, 0xff, 0xff,
   0xff, 0xff, 0xff, 0xff, 0xff, 0xff, 0xff, 0xff, 0xff, 0xbf, 0x53, 0xa5,
   0x48, 0x92, 0xde, 0xbd, 0x5e, 0x0f, 0xff, 0xff, 0xff, 0xff, 0xff, 0xff,
   0xff, 0xff, 0xff, 0xbf, 0xff, 0xff, 0x57, 0x75, 0x4a, 0x95, 0xf4, 0xbd,
   0xeb, 0x5b, 0x0f, 0xff, 0xff, 0xff, 0xff, 0xff, 0xff, 0xff, 0xff, 0xff,
   0x7f, 0xff, 0xff, 0xbf, 0x4e, 0x29, 0x22, 0x25, 0x77, 0x7f, 0xeb, 0x0f,
   0xff, 0xff, 0xff, 0xff, 0xff, 0xff, 0xff, 0xff, 0xff, 0xff, 0xff, 0xff,
   0xaf, 0x9a, 0xca, 0x4c, 0xd4, 0xdd, 0xf6, 0x75, 0x0d, 0xff, 0xff, 0xff,
   0xff, 0xff, 0xff, 0xff, 0xff, 0xff, 0xff, 0xff, 0xff, 0x7f, 0x65, 0x3a,
   0x91, 0xa9, 0xdf, 0xaf, 0xdf, 0x0f, 0xff, 0xff, 0xff, 0xff, 0xff, 0xff,
   0xff, 0xff, 0xff, 0xff, 0xff, 0xff, 0xff, 0xda, 0x49, 0x2a, 0xd3, 0xfa,
   0xfd, 0xaa, 0x0f, 0xff, 0xff, 0xff, 0xff, 0xff, 0xff, 0xff, 0xff, 0xff,
   0xf7, 0xff, 0xff, 0xff, 0xa5, 0xba, 0xa2, 0xd4, 0xdf, 0xbb, 0x77, 0x0f,
   0xff, 0xff, 0xff, 0xff, 0xff, 0xff, 0xff, 0xff, 0xff, 0xff, 0xff, 0xff,
   0x5f, 0x5d, 0x49, 0x2a, 0x69, 0x7f, 0x6f, 0xf9, 0x0b, 0xff, 0xff, 0xff,
   0xff, 0xff, 0xff, 0xff, 0xff, 0xff, 0xff, 0xff, 0xff, 0xff, 0xaa, 0x56,
   0x49, 0xea, 0xf7, 0x7d, 0x57, 0x0b, 0xff, 0xff, 0xff, 0xff, 0xff, 0xff,
   0xff, 0xff, 0xff, 0xff, 0xff, 0xff, 0x5b, 0x57, 0x59, 0x95, 0x7a, 0xef,
   0xd7, 0xaa, 0x0e, 0xff, 0xff, 0xff, 0xff, 0xff, 0xff, 0xff, 0xff, 0xff,
   0xff, 0xff, 0xdf, 0xff, 0x55, 0xaf, 0xa4, 0xea, 0x7d, 0xbf, 0xaa, 0x0b,
   0xff, 0xff, 0xff, 0xff, 0xff, 0xff, 0xff, 0xff, 0xff, 0xff, 0x7f, 0x7f,
   0x2b, 0xaa, 0x9c, 0x4a, 0xfd, 0xd7, 0xed, 0xaa, 0x0e, 0xff, 0xff, 0xff,
   0xff, 0xff, 0xff, 0xff, 0xff, 0xff, 0xf7, 0xf7, 0xf6, 0xff, 0x55, 0xeb,
   0x94, 0x56, 0xff, 0x2f, 0xe9, 0x0b, 0xff, 0xff, 0xff, 0xff, 0xff, 0xff,
   0xff, 0xff, 0xff, 0xff, 0xfe, 0xbf, 0xaa, 0x57, 0xba, 0x6b, 0xfd, 0xbd,
   0x6d, 0xab, 0x0e, 0xff, 0xff, 0xff, 0xff, 0xff, 0xff, 0xff, 0xff, 0xff,
   0xff, 0xff, 0xf7, 0x7f, 0xd7, 0xaa, 0xa4, 0xff, 0xf7, 0x97, 0xa4, 0x0a,
   0xff, 0xff, 0xff, 0xff, 0xff, 0xff, 0xff, 0xff, 0xff, 0xff, 0xdf, 0x7e,
   0xdf, 0xbe, 0xaa, 0x6a, 0xdd, 0xdf, 0x5a, 0xad, 0x0e, 0xff, 0xff, 0xff,
   0xff, 0xff, 0xff, 0xff, 0xff, 0xff, 0xff, 0xff, 0xef, 0x7f, 0xaf, 0xaa,
   0xda, 0xff, 0xfe, 0x2b, 0xa5, 0x0a, 0xff, 0xff, 0xff, 0xff, 0xff, 0xff,
   0xff, 0xff, 0xff, 0xff, 0xff, 0xff, 0xff, 0x7f, 0x55, 0x69, 0xbb, 0x7b,
   0xb5, 0xaa, 0x0e, 0xff, 0xff, 0xed, 0xff, 0xff, 0xff, 0xff, 0xff, 0xff,
   0xff, 0xff, 0xff, 0xff, 0x5e, 0x55, 0xfd, 0xff, 0xef, 0x8b, 0x9c, 0x0a,
   0xff, 0xff, 0xf7, 0xff, 0xff, 0xff, 0xff, 0xff, 0xff, 0xff, 0xff, 0xff,
   0xff, 0xfb, 0xab, 0xeb, 0xff, 0xbf, 0xaa, 0x72, 0x05, 0xff, 0xff, 0xde,
   0xff, 0xff, 0xff, 0xff, 0xff, 0xff, 0xff, 0xff, 0xff, 0xff, 0xfe, 0xaa,
   0xfe, 0xb7, 0xbd, 0x3a, 0x55, 0x0a, 0xff, 0xff, 0xb5, 0xff, 0xff, 0xff,
   0xff, 0xff, 0xff, 0xff, 0xff, 0xff, 0xff, 0xaa, 0xeb, 0xdf, 0xfd, 0x77,
   0xe5, 0x52, 0x07, 0xff, 0xff, 0xef, 0xff, 0xff, 0xff, 0xff, 0xff, 0xff,
   0xff, 0xff, 0xff, 0xff, 0x7d, 0x5d, 0xfd, 0xff, 0x57, 0x4a, 0xaa, 0x0a,
   0xff, 0xff, 0xda, 0xff, 0xff, 0xff, 0xff, 0xff, 0xff, 0xff, 0xff, 0xff,
   0xff, 0xff, 0xf5, 0xff, 0xef, 0xaf, 0x55, 0x49, 0x0e, 0xff, 0xff, 0xf7,
   0xff, 0xff, 0xff, 0xff, 0xff, 0xff, 0xff, 0xff, 0xff, 0xff, 0xf7, 0xff,
   0xdf, 0xdf, 0x2a, 0x91, 0xba, 0x0a, 0xff, 0xff, 0xff, 0xff, 0xff, 0xff,
   0xff, 0xff, 0xff, 0xff, 0xff, 0xff, 0xff, 0x6f, 0xfb, 0xff, 0xfe, 0x55,
   0x55, 0xca, 0x0e, 0xff, 0xff, 0xfb, 0xff, 0xff, 0xff, 0xff, 0xff, 0xff,
   0xff, 0xff, 0xff, 0xff, 0xfd, 0xef, 0xff, 0xbf, 0x95, 0x48, 0xb9, 0x0b,
   0xff, 0xff, 0xff, 0xff, 0xff, 0xff, 0xff, 0xff, 0xff, 0xff, 0xff, 0xff,
   0xff, 0xef, 0xff, 0xff, 0xff, 0xaa, 0x4a, 0xfe, 0x0f, 0xff, 0xff, 0xff,
   0xff, 0xff, 0xff, 0xff, 0xff, 0xff, 0xff, 0xff, 0xff, 0xb7, 0xff, 0x7f,
   0xff, 0xdf, 0x4a, 0x52, 0xf9, 0x0b, 0xff, 0xff, 0xff, 0xff, 0xff, 0xff,
   0xff, 0xff, 0xff, 0xff, 0xff, 0xff, 0xff, 0xff, 0xff, 0xdf, 0xb6, 0xad,
   0x24, 0xff, 0x0f, 0xff, 0xff, 0xff, 0xff, 0xff, 0xff, 0xff, 0xff, 0xff,
   0xff, 0xff, 0xff, 0xff, 0xff, 0xff, 0xff, 0xb7, 0x2a, 0x49, 0xfc, 0x0f,
   0xff, 0xff, 0xff, 0xff, 0xff, 0xff, 0xff, 0xff, 0xff, 0xff, 0xff, 0xff,
   0xff, 0xff, 0xff, 0xff, 0xad, 0x4a, 0x95, 0xff, 0x0f, 0xff, 0xff, 0xff,
   0xff, 0xff, 0xff, 0xff, 0xff, 0xff, 0xff, 0xff, 0xff, 0xff, 0xff, 0xff,
   0xff, 0x6d, 0x55, 0x22, 0xff, 0x0f, 0xff, 0xff, 0xff, 0xff, 0xff, 0xff,
   0xff, 0xff, 0xff, 0xff, 0xff, 0xff, 0xff, 0xff, 0xff, 0x5f, 0xb7, 0x95,
   0xaa, 0xfe, 0x0f, 0xff, 0xff, 0xff, 0xff, 0xff, 0xff, 0xff, 0xff, 0xff,
   0xff, 0xff, 0xff, 0xff, 0xff, 0xff, 0xfb, 0x5d, 0xa9, 0x92, 0xfc, 0x0f,
   0xff, 0xff, 0xff, 0xff, 0xff, 0xff, 0xff, 0xff, 0xff, 0xff, 0xff, 0xff,
   0xff, 0xff, 0xff, 0xaf, 0xaa, 0x3a, 0x15, 0xff, 0x0f, 0xff, 0xff, 0xff,
   0xff, 0xff, 0xff, 0xff, 0xff, 0xff, 0xff, 0xff, 0xff, 0xff, 0xff, 0xbf,
   0xfd, 0x77, 0xa7, 0x64, 0xfe, 0x0f, 0xff, 0xff, 0xff, 0xff, 0xff, 0xff,
   0xff, 0xff, 0xff, 0xff, 0xff, 0xff, 0xff, 0xff, 0xff, 0x57, 0x8d, 0xaa,
   0x8a, 0xfe, 0x0f, 0xff, 0xff, 0xff, 0xff, 0xff, 0xff, 0xff, 0xff, 0xff,
   0xff, 0xff, 0xff, 0xff, 0xff, 0xb7, 0xee, 0x77, 0x9d, 0x94, 0xf4, 0x0b,
   0xff, 0xff, 0xff, 0xff, 0xff, 0xff, 0xff, 0xff, 0xff, 0xff, 0xff, 0xff,
   0xff, 0xdf, 0xfe, 0xbb, 0x9e, 0xb2, 0xaa, 0xe2, 0x04, 0xff, 0xff, 0xff,
   0xff, 0xff, 0xff, 0xff, 0xff, 0xff, 0xff, 0xff, 0xff, 0xff, 0xfd, 0x6f,
   0xff, 0xfb, 0x4e, 0x92, 0xac, 0x05, 0xff, 0xff, 0xff, 0xff, 0xff, 0xff,
   0xff, 0xff, 0xff, 0xff, 0xff, 0xff, 0xff, 0xff, 0xfd, 0x77, 0xae, 0xbb,
   0xaa, 0xe0, 0x04, 0xff, 0xff, 0xff, 0xff, 0xeb, 0xff, 0xff, 0xff, 0xff,
   0xff, 0xff, 0xff, 0xff, 0xff, 0x6f, 0xef, 0xab, 0xaa, 0x92, 0x95, 0x0a,
   0xff, 0xff, 0xff, 0xff, 0xd5, 0xff, 0xff, 0xff, 0xff, 0xff, 0xff, 0xff,
   0xff, 0xb7, 0xff, 0xff, 0xb5, 0xaa, 0xaa, 0x92, 0x00, 0xff, 0xff, 0xff,
   0xff, 0xab, 0xff, 0xff, 0xff, 0xff, 0xff, 0xff, 0xff, 0xff, 0xff, 0xfd,
   0xbf, 0x56, 0x55, 0x55, 0x4a, 0x0e, 0xff, 0xff, 0xff, 0x7f, 0xaa, 0xff,
   0xff, 0xff, 0xff, 0xff, 0xff, 0xff, 0xff, 0xff, 0xff, 0xf6, 0xaa, 0x2a,
   0x49, 0xa9, 0x00, 0xff, 0xff, 0xff, 0xff, 0x55, 0xff, 0xff, 0xff, 0xff,
   0xff, 0xff, 0xff, 0xff, 0xff, 0xfb, 0xbf, 0xfb, 0xf5, 0x3a, 0x25, 0x0d,
   0xff, 0xff, 0xff, 0x7f, 0xd5, 0xff, 0xff, 0xff, 0xff, 0xff, 0xff, 0xff,
   0xff, 0xff, 0xff, 0xfe, 0xbf, 0x57, 0x57, 0x55, 0x0d, 0xff, 0xff, 0xff,
   0xff, 0x95, 0xff, 0xff, 0xff, 0xff, 0xff, 0xff, 0xff, 0xff, 0xff, 0xef,
   0x7f, 0xaf, 0x77, 0xe5, 0x24, 0x0d, 0xff, 0xff, 0xff, 0xff, 0x6a, 0xff,
   0xff, 0xff, 0xff, 0xff, 0xff, 0xff, 0xff, 0xff, 0xff, 0xff, 0x7f, 0xff,
   0xad, 0xaa, 0x0e, 0xff, 0xff, 0xff, 0xff, 0xd5, 0xff, 0xff, 0xff, 0xff,
   0xff, 0xff, 0xff, 0xff, 0xff, 0xff, 0xff, 0xff, 0xff, 0xa5, 0x94, 0x0f,
   0xff, 0xff, 0xff, 0xff, 0xef, 0xff, 0xff, 0xff, 0xff, 0xff, 0xff, 0xff,
   0xff, 0xff, 0xff, 0xff, 0xff, 0xff, 0x9a, 0xa9, 0x0f, 0xff, 0xff, 0xff,
   0xff, 0xff, 0xff, 0xff, 0xff, 0xff, 0xff, 0xff, 0xff, 0xff, 0xff, 0xff,
   0xff, 0xff, 0xff, 0x73, 0xe5, 0x0f, 0xfe, 0xff, 0xff, 0xff, 0xff, 0xff,
   0xff, 0xff, 0xff, 0xff, 0xff, 0xff, 0xff, 0xff, 0xfe, 0xff, 0xff, 0xff,
   0xad, 0xea, 0x0f, 0xfe, 0xff, 0xff, 0xff, 0xff, 0xff, 0xff, 0xff, 0xff,
   0xff, 0xff, 0xff, 0xff, 0xff, 0xff, 0xff, 0xff, 0xff, 0xab, 0xf4, 0x0f,
   0xfc, 0xff, 0xff, 0xff, 0xff, 0xff, 0xff, 0xff, 0xff, 0xff, 0xff, 0xff,
   0xff, 0xff, 0xff, 0xff, 0xff, 0xff, 0x57, 0xf5, 0x0f, 0xf8, 0xff, 0xff,
   0xff, 0xff, 0xff, 0xff, 0xff, 0xff, 0xff, 0xff, 0xff, 0xff, 0xff, 0xff,
   0xff, 0xff, 0xff, 0xd7, 0xff, 0x0f, 0xf8, 0xff, 0xff, 0xff, 0xff, 0xff,
   0xff, 0xff, 0xff, 0xff, 0xff, 0xff, 0xff, 0xff, 0xff, 0xff, 0xff, 0xff,
   0x5f, 0xfd, 0x0f, 0xf0, 0xff, 0xff, 0xff, 0xff, 0xff, 0xff, 0xff, 0xff,
   0xff, 0xff, 0xff, 0xff, 0xff, 0xff, 0xff, 0xff, 0xff, 0x55, 0xff, 0x0f,
   0xe0, 0xff, 0xff, 0xff, 0xff, 0xff, 0xff, 0xff, 0xff, 0xff, 0xff, 0xff,
   0xff, 0xff, 0xff, 0xff, 0xff, 0xff, 0x57, 0xff, 0x0f, 0xe0, 0xff, 0xff,
   0xff, 0xff, 0xff, 0xff, 0xff, 0xff, 0xff, 0xff, 0xff, 0xff, 0xff, 0xff,
   0xff, 0xff, 0xff, 0xff, 0xff, 0x0f, 0xc0, 0xff, 0xff, 0xff, 0xff, 0xff,
   0xff, 0xff, 0xff, 0xff, 0xff, 0xff, 0xff, 0xff, 0xff, 0xff, 0xff, 0xff,
   0xeb, 0xff, 0x0f, 0x80, 0xff, 0xff, 0xff, 0xff, 0xff, 0xff, 0xfd, 0xff,
   0xff, 0xff, 0xff, 0xff, 0xff, 0xff, 0xff, 0xff, 0xff, 0xfe, 0xff, 0x0f,
   0x00, 0xff, 0xff, 0xff, 0xff, 0xff, 0xff, 0xf7, 0xff, 0xff, 0xff, 0xff,
   0xff, 0xff, 0xff, 0xff, 0xff, 0xff, 0xfb, 0xff, 0x0f, 0x00, 0xff, 0xff,
   0xff, 0xff, 0xff, 0xff, 0xfe, 0xff, 0xff, 0xff, 0xff, 0xff, 0xff, 0xff,
   0xff, 0xff, 0x7f, 0xff, 0xff, 0x0f, 0x00, 0xfe, 0xff, 0xff, 0xff, 0xff,
   0xff, 0xeb, 0xff, 0xff, 0xff, 0xff, 0xff, 0xff, 0xff, 0xff, 0xff, 0xbf,
   0xff, 0xff, 0x0f, 0x00, 0xfc, 0xff, 0xff, 0xff, 0xff, 0x7f, 0xff, 0xff,
   0xff, 0xff, 0xff, 0xff, 0xff, 0xff, 0xff, 0xff, 0xff, 0xff, 0xff, 0x0f,
   0x00, 0xf8, 0xff, 0xff, 0xff, 0xff, 0xff, 0xfb, 0xff, 0xff, 0xff, 0xff,
   0xff, 0xff, 0xff, 0xff, 0xff, 0xff, 0xff, 0xff, 0x0d, 0x00, 0xf0, 0xff,
   0xff, 0xff, 0xff, 0xff, 0xff, 0xff, 0xff, 0xff, 0xff, 0xff, 0xff, 0xff,
   0xff, 0xff, 0xff, 0xff, 0xff, 0x0f, 0x00, 0xf0, 0xff, 0xff, 0xff, 0xff,
   0xff, 0xff, 0xff, 0xff, 0xff, 0xff, 0xff, 0xff, 0xff, 0xff, 0xff, 0xff,
   0xff, 0xff, 0x0b, 0x00, 0xe0, 0xff, 0xff, 0xff, 0xff, 0xff, 0xff, 0xff,
   0xff, 0xff, 0xff, 0xff, 0xff, 0xff, 0xff, 0xff, 0xff, 0xff, 0xff, 0x0f,
   0x00, 0xc0, 0xff, 0xff, 0xff, 0xff, 0xff, 0xff, 0xff, 0xff, 0xff, 0xff,
   0xff, 0xff, 0xff, 0xff, 0xff, 0xff, 0xff, 0xff, 0x0f, 0x00, 0x80, 0xff,
   0xff, 0xff, 0xff, 0xff, 0xff, 0xff, 0xff, 0xff, 0xff, 0xff, 0xff, 0xff,
   0xff, 0xff, 0xff, 0xff, 0xff, 0x0f, 0x00, 0x00, 0xff, 0xff, 0xff, 0xff,
   0xff, 0xff, 0xff, 0xff, 0xff, 0xff, 0xff, 0xff, 0xff, 0xff, 0xff, 0xff,
   0xff, 0xff, 0x0f, 0x00, 0x00, 0xfe, 0xff, 0xff, 0xff, 0xff, 0xff, 0xff,
   0xff, 0xff, 0xff, 0xff, 0xff, 0xff, 0xff, 0xff, 0xff, 0xff, 0xff, 0x0f,
   0x00, 0x00, 0xfc, 0xff, 0xff, 0xff, 0xff, 0xff, 0xff, 0xff, 0xff, 0xff,
   0xff, 0xff, 0xff, 0xff, 0xff, 0xff, 0xff, 0xff, 0x07, 0x00, 0x00, 0xf8,
   0xff, 0xff, 0xff, 0xff, 0xff, 0xff, 0xff, 0xff, 0xff, 0xff, 0xff, 0xff,
   0xff, 0xff, 0xff, 0xff, 0xff, 0x03, 0x00, 0x00, 0xf0, 0xff, 0xff, 0xff,
   0xff, 0xff, 0xff, 0xff, 0xff, 0xff, 0xff, 0xff, 0xff, 0xff, 0xff, 0xff,
   0xff, 0xff, 0x01, 0x00, 0x00, 0xe0, 0xff, 0xff, 0xff, 0xff, 0xff, 0xff,
   0xff, 0xff, 0xff, 0xff, 0xff, 0xff, 0xff, 0xff, 0xff, 0xff, 0x7f, 0x01,
   0x00, 0x00, 0xc0, 0xff, 0xff, 0xff, 0xff, 0xff, 0xff, 0xff, 0xff, 0xff,
   0xff, 0xff, 0xff, 0xff, 0xff, 0xff, 0xff, 0x7f, 0x00, 0x00, 0x00, 0x80,
   0xff, 0xff, 0xff, 0xff, 0xff, 0xff, 0xff, 0xff, 0xff, 0xff, 0xff, 0xff,
   0xff, 0xff, 0xff, 0xff, 0x5f, 0x00, 0x00, 0x00, 0x00, 0xfe, 0xff, 0xff,
   0xff, 0xff, 0xff, 0xff, 0xff, 0xff, 0xff, 0xff, 0xff, 0xff, 0xff, 0xff,
   0xff, 0x1f, 0x00, 0x00, 0x00, 0x00, 0xfc, 0xff, 0xff, 0xff, 0xff, 0xff,
   0xff, 0xff, 0xff, 0xff, 0xff, 0xff, 0xff, 0xff, 0xff, 0xff, 0x0f, 0x00,
   0x00, 0x00, 0x00, 0xf8, 0xff, 0xff, 0xff, 0xff, 0xff, 0xff, 0xff, 0xff,
   0xff, 0xff, 0xff, 0xff, 0xff, 0xff, 0xff, 0x03, 0x00, 0x00, 0x00, 0x00,
   0xf0, 0xff, 0xff, 0xff, 0xff, 0xff, 0xff, 0xff, 0xff, 0xff, 0xff, 0xff,
   0xff, 0xff, 0xff, 0xff, 0x03, 0x00, 0x00, 0x00, 0x00, 0xc0, 0xff, 0xff,
   0xff, 0xff, 0xff, 0xff, 0xff, 0xff, 0xff, 0xff, 0xff, 0xff, 0xff, 0xff,
   0xff, 0x00, 0x00, 0x00, 0x00, 0x00, 0x80, 0xff, 0xff, 0xff, 0xff, 0xff,
   0xff, 0xff, 0xff, 0xff, 0xff, 0xff, 0xff, 0xff, 0xff, 0xbf, 0x00, 0x00,
   0x00, 0x00, 0x00, 0x00, 0xff, 0xff, 0xff, 0xff, 0xff, 0xff, 0xff, 0xff,
   0xff, 0xff, 0xff, 0xff, 0xff, 0xff, 0x1f, 0x00, 0x00, 0x00, 0x00, 0x00,
   0x00, 0xfc, 0xff, 0xff, 0xff, 0xff, 0xff, 0xff, 0xff, 0xff, 0xff, 0xff,
   0xff, 0xff, 0xff, 0x17, 0x00, 0x00, 0x00, 0x00, 0x00, 0x00, 0xf8, 0xff,
   0xff, 0xff, 0xff, 0xff, 0xff, 0xff, 0xff, 0xff, 0xff, 0xff, 0xff, 0xff,
   0x03, 0x00, 0x00, 0x00, 0x00, 0x00, 0x00, 0xe0, 0xff, 0xff, 0xff, 0xff,
   0xff, 0xff, 0xff, 0xff, 0xff, 0xff, 0xff, 0xff, 0xff, 0x05, 0x00, 0x00,
   0x00, 0x00, 0x00, 0x00, 0x80, 0xff, 0xff, 0xff, 0xff, 0xff, 0xff, 0xff,
   0xff, 0xff, 0xff, 0xff, 0xff, 0x7f, 0x00, 0x00, 0x00, 0x00, 0x00, 0x00,
   0x00, 0x00, 0xff, 0xff, 0xff, 0xff, 0xff, 0xff, 0xff, 0xff, 0xff, 0xff,
   0xff, 0xff, 0xbf, 0x00, 0x00, 0x00, 0x00, 0x00, 0x00, 0x00, 0x00, 0xfc,
   0xff, 0xff, 0xff, 0xff, 0xff, 0xff, 0xff, 0xff, 0xff, 0xff, 0xff, 0x07,
   0x00, 0x00, 0x00, 0x00, 0x00, 0x00, 0x00, 0x00, 0xf0, 0xff, 0xff, 0xff,
   0xff, 0xff, 0xff, 0xff, 0xff, 0xff, 0xff, 0xff, 0x0b, 0x00, 0x00, 0x00,
   0x00, 0x00, 0x00, 0x00, 0x00, 0xe0, 0xff, 0xff, 0xff, 0xff, 0xff, 0xff,
   0xff, 0xff, 0xff, 0xff, 0x7f, 0x00, 0x00, 0x00, 0x00, 0x00, 0x00, 0x00,
   0x00, 0x00, 0x00, 0xff, 0xff, 0xff, 0xff, 0xff, 0xff, 0xff, 0xff, 0xff,
   0xff, 0xbf, 0x00, 0x00, 0x00, 0x00, 0x00, 0x00, 0x00, 0x00, 0x00, 0x00,
   0xfe, 0xff, 0xff, 0xff, 0xff, 0xff, 0xff, 0xff, 0xff, 0xff, 0x07, 0x00,
   0x00, 0x00, 0x00, 0x00, 0x00, 0x00, 0x00, 0x00, 0x00, 0xf0, 0xff, 0xff,
   0xff, 0xff, 0xff, 0xff, 0xff, 0xff, 0xff, 0x0b, 0x00, 0x00, 0x00, 0x00,
   0x00, 0x00, 0x00, 0x00, 0x00, 0x00, 0xc0, 0xff, 0xff, 0xff, 0xff, 0xff,
   0xff, 0xff, 0xff, 0x7f, 0x00, 0x00, 0x00, 0x00, 0x00, 0x00, 0x00, 0x00,
   0x00, 0x00, 0x00, 0x00, 0xfe, 0xff, 0xff, 0xff, 0xff, 0xff, 0xff, 0xff,
   0xaf, 0x00, 0x00, 0x00, 0x00, 0x00, 0x00, 0x00, 0x00, 0x00, 0x00, 0x00,
   0x00, 0xf8, 0xff, 0xff, 0xff, 0xff, 0xff, 0xff, 0xff, 0x01, 0x00, 0x00,
   0x00, 0x00, 0x00, 0x00, 0x00, 0x00, 0x00, 0x00, 0x00, 0x00, 0x40, 0xff,
   0xff, 0xff, 0xff, 0xff, 0xff, 0xbf, 0x02, 0x00, 0x00, 0x00, 0x00, 0x00,
   0x00, 0x00, 0x00, 0x00, 0x00, 0x00, 0x00, 0x00, 0xf4, 0xff, 0xff, 0xff,
   0xff, 0xff, 0x0b, 0x00, 0x00, 0x00, 0x00, 0x00, 0x00, 0x00, 0x00, 0x00,
   0x00, 0x00, 0x00, 0x00, 0x00, 0x80, 0xff, 0xff, 0xff, 0xff, 0x5f, 0x00,
   0x00, 0x00, 0x00, 0x00, 0x00, 0x00, 0x00, 0x00, 0x00, 0x00, 0x00, 0x00,
   0x00, 0x00, 0x20, 0xe8, 0xff, 0xff, 0x7f, 0x05, 0x00, 0x00, 0x00, 0x00,
   0x00, 0x00, 0x00, 0x00, 0x00, 0x00, 0x00, 0x00, 0x00, 0x00, 0x00, 0x00,
   0x00, 0x40, 0x55, 0x01, 0x00, 0x00, 0x00, 0x00, 0x00, 0x00, 0x00, 0x00,
   0x00, 0x00, 0x00, 0x00, 0x00, 0x00, 0x00, 0x00, 0x00, 0x00, 0x00, 0x00,
   0x00, 0x00, 0x00, 0x00, 0x00, 0x00, 0x00, 0x00, 0x00, 0x00, 0x00, 0x00,
   0x00, 0x00, 0x00, 0x00, 0x00, 0x00, 0x00, 0x00, 0x00, 0x00, 0x00, 0x00,
   0x00, 0x00, 0x00, 0x00, 0x00, 0x00, 0x00, 0x00, 0x00, 0x00, 0x00, 0x00,
   0x00, 0x00, 0x00, 0x00, 0x00, 0x00, 0x00, 0x00, 0x00, 0x00, 0x00, 0x00,
   0x00, 0x00, 0x00, 0x00, 0x00, 0x00, 0x00, 0x00, 0x00, 0x00, 0x00, 0x00,
   0x00, 0x00, 0x00, 0x00, 0x00, 0x00, 0x00, 0x00, 0x00, 0x00, 0x00, 0x00,
   0x00, 0x00, 0x00, 0x00, 0x00, 0x00, 0x00, 0x00, 0x00, 0x00, 0x00, 0x00,
   0x00, 0x00, 0x00, 0x00, 0x00, 0x00, 0x00, 0x00, 0x00, 0x00, 0x00, 0x00,
   0x00, 0x00, 0x00, 0x00, 0x00, 0x00, 0x00, 0x00, 0x00, 0x00, 0x00, 0x00,
   0x00, 0x00, 0x00, 0x00, 0x00, 0x00, 0x00, 0x00, 0x00, 0x00, 0x00, 0x00,
   0x00, 0x00, 0x00, 0x00, 0x00, 0x00, 0x00, 0x00, 0x00, 0x00, 0x00, 0x00,
   0x00, 0x00, 0x00, 0x00, 0x00, 0x00, 0x00, 0x00, 0x00, 0x00, 0x00, 0x00,
   0x00, 0x00, 0x00, 0x00, 0x00, 0x00, 0x00, 0x00, 0x00, 0x00, 0x00, 0x00,
   0x00, 0x00, 0x00, 0x00, 0x00, 0x00, 0x00, 0x00, 0x00, 0x00, 0x00, 0x00,
   0x00, 0x00, 0x00, 0x00, 0x00, 0x00, 0x00, 0x00, 0x00, 0x00, 0x00, 0x00,
   0x00, 0x00, 0x00, 0x00, 0x00, 0x00, 0x00, 0x00, 0x00, 0x00, 0x00, 0x00,
   0x00, 0x00, 0x00, 0x00, 0x00, 0x00, 0x00, 0x00, 0x00, 0x00, 0x00, 0x00,
   0x00, 0x00, 0x00, 0x00, 0x00, 0x00, 0x00, 0x00, 0x00, 0x00, 0x00, 0x00,
   0x00, 0x00, 0x00, 0x00, 0x00, 0x00, 0x00, 0x00, 0x00, 0x00, 0x00, 0x00,
   0x00, 0x00, 0x00, 0x00, 0x00, 0x00, 0x00, 0x00, 0x00, 0x00, 0x00, 0x00,
   0x00, 0x00, 0x00, 0x00, 0x00, 0x00, 0x00, 0x00, 0x00, 0x00, 0x00, 0x00,
   0x00, 0x00, 0x00, 0x00, 0x00, 0x00, 0x00, 0x00, 0x00, 0x00, 0x00, 0x00,
   0x00, 0x00, 0x00, 0x00, 0x00, 0x00, 0x00, 0x00, 0x00, 0x00, 0x00, 0x00,
   0x00, 0x00, 0x00, 0x00, 0x00, 0x00, 0x00, 0x00, 0x00, 0x00, 0x00, 0x00,
   0x00, 0x00, 0x00, 0x00, 0x00, 0x00, 0x00, 0x00, 0x00, 0x00, 0x00, 0x00,
   0x00, 0x00, 0x00, 0x00, 0x00, 0x00, 0x00, 0x00, 0x00, 0x00, 0x00, 0x00,
   0x00, 0x00, 0x00, 0x00, 0x00, 0x00, 0x00, 0x00, 0x00, 0x00, 0x00, 0x00,
   0x00, 0x00, 0x00, 0x00, 0x00, 0x00, 0x00, 0x00, 0x00, 0x00, 0x00, 0x00,
   0x00, 0x00, 0x00, 0x00, 0x00, 0x00, 0x00, 0x00, 0x00, 0x00, 0x00, 0x00,
   0x00, 0x00, 0x00, 0x00, 0x00, 0x00, 0x00, 0x00, 0x00, 0x00, 0x00, 0x00,
   0x00, 0x00, 0x00, 0x00, 0x00, 0x00, 0x00, 0x00, 0x00, 0x00, 0x00, 0x00,
   0x00, 0x00, 0x00, 0x00, 0x00, 0x00, 0x00, 0x00, 0x00, 0x00, 0x00, 0x00,
   0x00, 0x00, 0x00, 0x00, 0x00, 0x00, 0x00, 0x00, 0x00, 0x00, 0x00, 0x00,
   0x00, 0x00, 0x00, 0x00, 0x00, 0x00, 0x00, 0x00, 0x00, 0x00, 0x00, 0x00,
   0x00, 0x00, 0x00, 0x00, 0x00, 0x00, 0x00, 0x00, 0x00, 0x00, 0x00, 0x00,
   0x00, 0x00, 0x00, 0x00, 0x00, 0x00, 0x00, 0x00, 0x00, 0x00, 0x00, 0x00,
   0x00, 0x00, 0x00, 0x00, 0x00, 0x00, 0x00, 0x00, 0x00, 0x00, 0x00, 0x00,
   0x00, 0x00, 0x00, 0x00, 0x00, 0x00, 0x00, 0x00, 0x00, 0x00, 0x00, 0x00,
   0x00, 0x00, 0x00, 0x00, 0x00, 0x00, 0x00, 0x00, 0x00, 0x00, 0x00, 0x00,
   0x00, 0x00, 0x00, 0x00, 0x00, 0x00, 0x00, 0x00, 0x00, 0x00, 0x00, 0x00,
   0x00, 0x00, 0x00, 0x00, 0x00, 0x00, 0x00, 0x00, 0x00, 0x00, 0x00, 0x00,
   0x00, 0x00, 0x00, 0x00, 0x00, 0x00, 0x00, 0x00, 0x00, 0x00, 0x00, 0x00,
   0x00, 0x00, 0x00, 0x00, 0x00, 0x00, 0x00, 0x00, 0x00, 0x00, 0x00, 0x00,
   0x00, 0x00, 0x00, 0x00, 0x00, 0x00, 0x00, 0x00, 0x00, 0x00, 0x00, 0x00,
   0x00, 0x00, 0x00, 0x00, 0x00, 0x00, 0x00, 0x00, 0x00, 0x00, 0x00, 0x00,
   0x00, 0x00, 0x00, 0x00, 0x00, 0x00, 0x00, 0x00, 0x00, 0x00, 0x00, 0x00,
   0x00, 0x00, 0x00, 0x00, 0x00, 0x00, 0x00, 0x00, 0x00, 0x00, 0x00, 0x00,
   0x00, 0x00, 0x00, 0x00, 0x00, 0x00, 0x00, 0x00, 0x00, 0x00, 0x00, 0x00,
   0x00, 0x00, 0x00, 0x00, 0x00, 0x00, 0x00, 0x00, 0x00, 0x00, 0x00, 0x00,
   0x00, 0x00, 0x00, 0x00, 0x00, 0x00, 0x00, 0x00, 0x00, 0x00, 0x00, 0x00,
   0x00, 0x00, 0x00, 0x00, 0x00, 0x00, 0x00, 0x00, 0x00, 0x00, 0x00, 0x00,
   0x00, 0x00, 0x00, 0x00, 0x00, 0x00 };
